<svg width="40" height="14" viewBox="0 0 40 14" fill="none" xmlns="http://www.w3.org/2000/svg">
<path d="M16.0162 1.04776L13.9833 12.9774H17.2346L19.2691 1.04776H16.0162Z" fill="white"/>
<path d="M11.2573 1.06113L8.07291 9.19677L7.7334 7.96835C7.1054 6.48824 5.32256 4.36255 3.22949 3.02292L6.14123 12.9715L9.58146 12.9656L14.7017 1.05862L11.2573 1.06113Z" fill="white"/>
<path d="M6.49914 1.91493C6.31016 1.18825 5.76243 0.971663 5.08258 0.94574H0.0418113L0 1.18323C3.92273 2.13485 6.51838 4.42778 7.59543 7.18482L6.49914 1.91493Z" fill="white"/>
<path d="M25.8586 3.33482C26.9223 3.31809 27.6933 3.55056 28.292 3.79139L28.5856 3.92937L29.0254 1.34376C28.3815 1.10209 27.3722 0.842865 26.1128 0.842865C22.9001 0.842865 20.6356 2.46096 20.618 4.77981C20.5971 6.49324 22.2311 7.44988 23.4653 8.02102C24.7322 8.60638 25.157 8.9785 25.1512 9.50114C25.1411 10.2997 24.141 10.666 23.207 10.666C21.9049 10.666 21.2134 10.4862 20.1455 10.0413L19.7266 9.85068L19.2692 12.5208C20.0301 12.8544 21.4342 13.1412 22.8917 13.1563C26.3093 13.1563 28.5304 11.5574 28.5538 9.07968C28.568 7.72416 27.7008 6.68975 25.8218 5.84098C24.6846 5.2874 23.9888 4.91946 23.9955 4.36086C23.9955 3.86498 24.5859 3.33482 25.8586 3.33482Z" fill="white"/>
<path d="M37.3692 1.06113H34.8572C34.077 1.06113 33.4967 1.27353 33.1538 2.05122L28.3263 12.984H31.7406C31.7406 12.984 32.2975 11.5139 32.4238 11.192C32.7976 11.192 36.1149 11.197 36.5874 11.197C36.6844 11.6135 36.9837 12.984 36.9837 12.984H40L37.3692 1.06113ZM33.3595 8.75022C33.6271 8.06535 34.6548 5.41619 34.6548 5.41619C34.6373 5.4488 34.9199 4.7263 35.088 4.27725L35.3071 5.30581C35.3071 5.30581 35.9301 8.15399 36.0605 8.75022H33.3595Z" fill="white"/>
</svg>
